<svg width="23" height="31" viewBox="0 0 23 31" fill="none" xmlns="http://www.w3.org/2000/svg">
<rect width="100" height="1366" transform="translate(-40 -31)" fill="white"/>
<g clip-path="url(#clip0_1_316)">
<path d="M17.2981 8C17.2981 12.5873 15.4756 16.9867 12.2316 20.2305C8.98759 23.4742 4.58775 25.2965 0 25.2965V28.0509C0 28.8331 0.31073 29.5832 0.863837 30.1362C1.41694 30.6893 2.16711 31 2.94932 31H20.0496C20.437 31.0001 20.8206 30.924 21.1786 30.7758C21.5366 30.6277 21.8618 30.4105 22.1358 30.1366C22.4098 29.8628 22.6271 29.5376 22.7754 29.1798C22.9237 28.8219 23 28.4383 23 28.0509V10.9501C23 10.1677 22.6892 9.41733 22.1359 8.86407C21.5826 8.31082 20.8321 8 20.0496 8H17.2981Z" fill="#6C5DD3"/>
<path d="M0.00235387 18.5897C2.86023 18.5897 5.60105 17.4782 7.62187 15.4995C9.64269 13.5209 10.778 10.8373 10.778 8.03906H2.98731C2.59522 8.03906 2.20698 8.11469 1.84476 8.26164C1.48254 8.40858 1.15343 8.62396 0.87624 8.89546C0.599047 9.16697 0.379191 9.48929 0.229247 9.84401C0.0793029 10.1987 0.00221014 10.5789 0.00235387 10.9628V18.5897Z" fill="#B5AEE9"/>
<path d="M14.1422 7.42194C16.0005 7.42194 17.5069 5.94699 17.5069 4.12754C17.5069 2.30809 16.0005 0.83313 14.1422 0.83313C12.284 0.83313 10.7776 2.30809 10.7776 4.12754C10.7776 5.94699 12.284 7.42194 14.1422 7.42194Z" fill="#FF8933"/>
</g>
<defs>
<clipPath id="clip0_1_316">
<rect width="105" height="30" fill="white" transform="translate(0 0.833008)"/>
</clipPath>
</defs>
</svg>
