<svg width="105" height="31" viewBox="0 0 105 31" fill="none" xmlns="http://www.w3.org/2000/svg">
<g clip-path="url(#clip0_1_236)">
<path d="M17.5071 8.03906C17.5071 12.5853 15.6626 16.9453 12.3794 20.16C9.09618 23.3747 4.64317 25.1807 0 25.1807V27.9105C0 28.6856 0.314485 29.429 0.874274 29.9771C1.43406 30.5252 2.19329 30.8331 2.98495 30.8331H20.2918C20.6839 30.8333 21.0722 30.7578 21.4345 30.611C21.7967 30.4642 22.1259 30.2489 22.4032 29.9775C22.6805 29.7061 22.9005 29.3839 23.0506 29.0292C23.2006 28.6745 23.2779 28.2944 23.2779 27.9105V10.9628C23.2779 10.1874 22.9633 9.4437 22.4033 8.8954C21.8433 8.34709 21.0838 8.03906 20.2918 8.03906H17.5071Z" fill="#6C5DD3"/>
<path d="M0.00231954 18.5897C2.86019 18.5897 5.60102 17.4782 7.62184 15.4995C9.64266 13.5209 10.7779 10.8373 10.7779 8.03906H2.98727C2.59519 8.03906 2.20695 8.11469 1.84473 8.26164C1.4825 8.40858 1.1534 8.62396 0.876206 8.89546C0.599012 9.16697 0.379157 9.48929 0.229213 9.84401C0.0792686 10.1987 0.00217581 10.5789 0.00231954 10.9628V18.5897Z" fill="#B5AEE9"/>
<path d="M14.1422 7.42194C16.0005 7.42194 17.5069 5.94699 17.5069 4.12754C17.5069 2.30809 16.0005 0.83313 14.1422 0.83313C12.284 0.83313 10.7776 2.30809 10.7776 4.12754C10.7776 5.94699 12.284 7.42194 14.1422 7.42194Z" fill="#FF8933"/>
<path d="M40.0341 9.66223H41.9161V22.346C41.9226 23.1875 41.8494 24.0279 41.6973 24.8561C41.0692 27.1788 38.8611 28.0873 36.106 28.0873C33.434 28.0873 31.1154 27.1788 30.4611 25.0158C30.2707 24.5872 30.1886 23.7077 30.1886 22.346V20.9307H33.8158V23.1206C33.8158 24.4062 34.5522 25.0426 36.0513 25.0426C37.4431 25.0426 38.1248 24.3483 38.1248 22.9599V11.5585C38.1259 10.5707 38.9979 9.66223 40.0341 9.66223Z" fill="#6C5DD3"/>
<path d="M47.5068 17.3794H43.8807C44.3184 14.7631 46.1982 13.4807 49.5256 13.4807C53.5074 13.4807 55.5251 14.7663 55.6072 17.3794V22.1854C55.6072 26.0841 53.2065 27.8197 49.3068 28.0875C45.8437 28.3543 43.4441 26.7783 43.4441 23.6543C43.5262 20.2634 46.0341 19.3549 49.6887 19.0078C51.2435 18.8214 52.0346 18.365 52.0346 17.5926C51.9525 16.7923 51.1888 16.3916 49.6887 16.3916C48.4074 16.3916 47.6983 16.7119 47.5068 17.3794ZM52.0893 22.0258V20.7177C51.1561 21.0938 50.188 21.3808 49.1985 21.5748C47.753 21.8416 47.0167 22.509 47.0167 23.5504C47.0987 24.6721 47.6983 25.2067 48.844 25.2067C50.8616 25.2035 52.0893 24.0282 52.0893 22.0258Z" fill="#6C5DD3"/>
<path d="M70.6608 11.4514V21.7053C70.6608 25.9511 68.3969 28.0606 63.8976 28.0338C59.4245 27.9534 57.188 25.5772 57.188 20.8771C57.188 16.0711 59.0973 13.6144 62.9423 13.4848C64.7423 13.4848 66.133 14.2058 67.0609 15.6747V9.66223H68.8608C69.3396 9.67254 69.7955 9.86517 70.1316 10.1992C70.4676 10.5333 70.6575 10.9825 70.6608 11.4514ZM60.9225 20.7175C60.8951 23.5737 61.8766 25.0158 63.949 25.0158C66.0214 25.0158 67.0587 23.5737 67.0587 20.7175C66.9766 17.9931 65.9645 16.6582 64.0037 16.6582C62.0429 16.6582 61.0341 17.9931 60.9246 20.7175H60.9225Z" fill="#6C5DD3"/>
<path d="M92.0142 13.6949L88.005 27.8196H84.2421L82.0603 17.6996L79.769 27.8196H75.9787L72.0243 13.6949H75.7052L77.9964 23.4945L80.0688 13.6949H83.9149L85.8779 23.4945L87.842 15.003C88.1144 14.1213 88.7173 13.6949 89.6146 13.6949H92.0142Z" fill="#6C5DD3"/>
<path d="M96.9009 17.3794H93.2736C93.7113 14.7631 95.5911 13.4807 98.9185 13.4807C102.9 13.4807 104.918 14.7663 105 17.3794V22.1854C105 26.0841 102.601 27.8197 98.7008 28.0875C95.2366 28.3543 92.837 26.7783 92.837 23.6543C92.9191 20.2634 95.4281 19.3549 99.0816 19.0078C100.636 18.8214 101.428 18.365 101.428 17.5926C101.345 16.7923 100.582 16.3916 99.0816 16.3916C97.7959 16.3916 97.0869 16.7119 96.9009 17.3794ZM101.482 22.0258V20.7177C100.549 21.0938 99.5809 21.3808 98.5914 21.5748C97.146 21.8416 96.4096 22.509 96.4096 23.5504C96.4916 24.6721 97.0912 25.2067 98.2369 25.2067C100.25 25.2035 101.478 24.0282 101.478 22.0258H101.482Z" fill="#6C5DD3"/>
</g>
<defs>
<clipPath id="clip0_1_236">
<rect width="105" height="30" fill="white" transform="translate(0 0.833008)"/>
</clipPath>
</defs>
</svg>
